<?xml version="1.0" standalone="yes"?>
<svg xmlns="http://www.w3.org/2000/svg" width="241" height="53">
<path style="fill:#f4f5fd; stroke:none;" d="M0 0L0 39L129 39L129 28C130.89 27.9033 133.041 27.5378 134.682 28.7731C139.079 32.0831 134.652 35.8392 131 36C131.854 39.9871 135.489 39 139 39L139 28C141.075 27.9033 143.769 27.3868 145.552 28.7731C150.339 32.4942 144.742 36.1202 141 36C142.119 41.2206 153.521 39.0104 158 39C159.687 38.9961 162.048 39.3668 163.5 38.2778C166.204 36.2496 164.833 32.6337 165.944 30.0278C167.014 27.5199 169.653 26.7987 172 26C171.699 29.9519 170.882 31.8224 167 33L167 35C170.207 35.4969 171.444 36.1504 173 39L241 39L241 0L0 0z"/>
<path style="fill:#5371ff; stroke:none;" d="M70 1C70 5.56959 68.7759 11.2615 73 14C72.1888 9.63071 72.0005 5.43627 72 1L70 1M201 1L201 5C197.385 5.27578 190.681 9.40757 196.433 12.8827C198.284 14.0008 201.006 13.2291 203 13L203 1L201 1M48 2L48 13C50.3696 12.9916 53.5022 13.402 55.5664 11.9722C63.1376 6.72776 52.5331 2.05354 48 2M94 2L94 4L98 4L98 13L100 13C100 8.06483 100.996 6.10607 103 2L94 2M179 2L179 13L186 13C184.231 12.2211 182.964 12.0876 181 12L181 2L179 2z"/>
<path style="fill:#4f4f4f; stroke:none;" d="M25 3C18.4251 13.7427 9.50097 25.8704 6 38L45 38C42.5613 31.3006 38.3781 25.1818 34.8495 19C31.781 13.6241 29.0675 7.68149 25 3z"/>
<path style="fill:#5371ff; stroke:none;" d="M75 3C74.4593 7.86913 74.3932 13.0264 80 14C78.4498 10.7446 76.5038 8.35699 80 6C78.3724 4.25655 77.303 3.61693 75 3M168 3C167.459 7.86914 167.393 13.0264 173 14C171.45 10.7446 169.504 8.357 173 6L170 3L168 3M188 3C187.448 7.9744 187.714 12.3956 193 14C191.786 10.8012 190.9 8.89553 193 6C191.372 4.25655 190.303 3.61694 188 3z"/>
<path style="fill:#f4f5fd; stroke:none;" d="M50 4L50 12C55.8359 10.7265 56.1007 5.01811 50 4z"/>
<path style="fill:#5371ff; stroke:none;" d="M67 11L62 11C64.1059 10.3562 65.7951 10.0941 68 10C67.3242 5.76295 61.5738 1.52519 60.3765 8.05401C59.4823 12.9308 64.4499 14.8754 67 11M121 5L121 13L123 13C123.11 10.558 123.428 8.37714 124 6L126 6C126.572 8.37716 126.89 10.558 127 13L129 13C128.976 6.22972 127.988 4.19654 121 5M131 9C132.767 9.95515 133.607 10.5664 135 12L131 11C133.672 15.0605 136.791 12.9805 138 9C135.894 8.18079 134.653 7.51251 133 6L137 7C134.494 3.28067 132.085 5.43133 131 9M140 5L140 17L142 17L142 13C146.058 13.5925 150.396 9.43972 146.397 5.64275C144.645 3.9786 142.097 4.6776 140 5M153.224 4.89043C148.679 6.17949 149.927 14.4852 154.961 13.2485C160.306 11.935 158.507 3.39205 153.224 4.89043M25 5L24 7C25.2627 6.02866 25.3919 6.30625 25 5M82 7L86 6C83.3451 8.72842 81.654 10.0273 82 14L89 14C88.4379 10.9749 88.0636 8.07795 88 5C85.3549 5.07695 83.734 4.99663 82 7M105 5L105 13L107 13C107.078 9.32032 108.529 8.01371 110 5L105 5M112 7L116 6C113.345 8.72843 111.654 10.0273 112 14L119 14C118.438 10.9749 118.064 8.07795 118 5C115.355 5.07695 113.734 4.99663 112 7M161 5L161 13L163 13C163.078 9.32033 164.529 8.01371 166 5L161 5z"/>
<path style="fill:#f4f5fd; stroke:none;" d="M25 6C18.6322 14.9169 11.0463 26.4455 8 37L43 37C39.445 27.2341 32.4035 13.3028 25 6z"/>
<path style="fill:#5371ff; stroke:none;" d="M27 6L28 7L27 6z"/>
<path style="fill:#f4f5fd; stroke:none;" d="M62 7C63.506 7.68304 64.3148 7.82589 66 8C64.1897 6.76035 64.2231 6.81631 62 7M143 6C142.354 8.45778 142.354 9.54221 143 12L145 12C145.646 9.5422 145.646 8.45781 145 6L143 6M153 6C152.354 8.45778 152.354 9.54221 153 12L155 12C155.646 9.54219 155.646 8.45781 155 6L153 6M198 6C197.354 8.45781 197.354 9.54219 198 12L200 12C200.646 9.54218 200.646 8.45782 200 6L198 6z"/>
<path style="fill:#5371ff; stroke:none;" d="M22 7L23 8L22 7z"/>
<path style="fill:#f4f5fd; stroke:none;" d="M85 9C84.0143 10.4785 84 10.2032 84 12C85.7662 11.0214 85.9555 10.7782 85 9M114 10L114 12L116 12L116 10L114 10z"/>
<path style="fill:#5371ff; stroke:none;" d="M29 12L30 13L29 12M20 13L21 14L20 13M31 13L32 14L31 13M18 14L19 15L18 14M32 17L33 18L32 17M33 19L34 20L33 19M16 20L17 21L16 20M35 20L36 21L35 20M14 21L15 22L14 21M36 24L37 25L36 24M78 24C78 28.5696 76.7759 34.2615 81 37C80.1888 32.6307 80.0005 28.4363 80 24L78 24M113 24L113 36L115 36C115.385 32.5582 115.976 30.7633 119 29L119 36L121 36C120.983 31.1364 120.946 26.1839 115 29L115 24L113 24M124 24L124 26L126 26L126 24L124 24M150 24L150 26L152 26L152 24L150 24M200 24L200 28C195.721 27.3752 191.959 31.4383 195.728 35.3719C197.477 37.197 200.692 36.8652 203 37L203 24L200 24M56 25L56 36C58.3702 35.9916 61.5014 36.4016 63.5664 34.9722C66.4097 33.004 66.3966 28.1384 63.5664 26.179C61.4552 24.7174 58.4289 25.022 56 25M109 32C106.735 33.9461 105.89 33.8355 103 33C104.216 36.4541 110.351 38.3215 110.364 33.0741C110.371 30.482 106.624 28.6236 105 27L111 27L111 25C109.054 25.0231 106.243 24.6688 104.621 26.0239C100.948 29.0926 106.73 31.5265 109 32M178 25L178 36L186 36C184.231 35.2211 182.964 35.0876 181 35L181 25L178 25M37 26L38 27L37 26M83 26C82.4482 30.9744 82.7141 35.3956 88 37C86.4498 33.7446 84.5038 31.357 88 29C86.3724 27.2565 85.303 26.6169 83 26M141 36C145.583 36.7642 151.18 31.5039 145.567 28.1173C143.715 26.9999 140.995 27.7708 139 28L139 39C135.464 38.9589 133.002 39.0894 131 36C135.058 36.5925 139.396 32.4397 135.397 28.6427C133.645 26.9786 131.097 27.6776 129 28L129 39L0 39C6.19393 41.5991 15.3141 40 22 40L71 40L241 40C235.049 37.5028 226.42 39 220 39L173 39C171.901 35.6787 170.41 35.2626 167 35L167 33C171.362 32.2721 171.863 30.1758 172 26C169.736 26.5981 167.382 27.0948 166.076 29.2785C164.563 31.8078 165.536 35.1659 163.282 37.3966C159.5 41.1404 143.741 40.2278 141 36M188 26C187.459 30.8691 187.393 36.0264 193 37C191.45 33.7446 189.504 31.357 193 29L190 26L188 26M12 27L13 28L12 27M39 27L40 28L39 27z"/>
<path style="fill:#f4f5fd; stroke:none;" d="M58 27L58 35C64.3389 33.6468 64.6499 28.0613 58 27z"/>
<path style="fill:#5371ff; stroke:none;" d="M155 28L155 36L157 36C157.23 32.8017 157.704 31.2345 160 29L160 36L162 36C161.979 30.1329 161.563 26.9825 155 28M10 28L11 29L10 28M75 34L70 34C72.1059 33.3562 73.7951 33.0941 76 33C75.3626 29.1805 69.5148 25.4018 68.3765 31.1435C67.4109 36.0146 72.5133 37.779 75 34M90 30L94 29C88.5179 34.6415 90.8563 36.583 98 37C97.2708 33.1483 95.0495 24.2502 90 30M124 28L124 36L126 36L126 28L124 28M150 28L150 36L152 36L152 28L150 28z"/>
<path style="fill:#f4f5fd; stroke:none;" d="M70 30C71.5061 30.683 72.3148 30.8259 74 31C72.1897 29.7603 72.2231 29.8163 70 30M132 29C131.354 31.4578 131.354 32.5422 132 35L134 35C134.646 32.5422 134.646 31.4578 134 29L132 29M145 35L145 29C140.799 30.3963 140.799 33.6037 145 35M167 32C169.124 31.1007 169.101 31.1236 170 29C167.636 29.4824 167.482 29.636 167 32M197 29C196.354 31.4578 196.354 32.5422 197 35L199 35C199.646 32.5422 199.646 31.4578 199 29L197 29z"/>
<path style="fill:#5371ff; stroke:none;" d="M40 31L41 32L40 31M41 33L42 34L41 33z"/>
<path style="fill:#f4f5fd; stroke:none;" d="M92 33L92 35L94 35L94 33L92 33z"/>
<path style="fill:#5371ff; stroke:none;" d="M8 34L9 35L8 34M43 34L44 35L43 34M6 35L7 36L6 35z"/>
<path style="fill:#f4f5fd; stroke:none;" d="M166 37C168.01 38.474 168.522 38.4645 171 38C169.231 37.2211 167.964 37.0876 166 37z"/>
<path style="fill:#4f4f4f; stroke:none;" d="M0 40C4.71991 41.9806 10.9198 41 16 41L50 41L167 41C162.28 39.0194 156.08 40 151 40L117 40L0 40M170 40C176.194 42.5991 185.314 41 192 41L241 41C234.806 38.4009 225.686 40 219 40L170 40z"/>
<path style="fill:#f4f5fd; stroke:none;" d="M0 41L0 53L241 53L241 41L0 41z"/>
<path style="fill:#5371ff; stroke:none;" d="M43 42L43 51C51.1717 50.3766 51.1717 42.6234 43 42M56 42L56 51L62 51L62 49L58 49C59.2228 47.8048 59.42 47.6836 61 47C60.2321 45.6859 60.3142 45.7679 59 45C60.0356 43.8137 60.3386 43.3964 61 42L56 42M68 42L68 51L73 51C72.0198 49.2167 72.0924 49.4057 70 49L70 42L68 42M79 42C80.1841 45.0895 80.9029 47.67 81 51L83 51C83.0971 47.67 83.8159 45.0895 85 42L79 42M93 42C91.6932 44.9499 90.7272 47.8562 90 51C93.1373 49.8978 94.8627 49.8978 98 51C97.2728 47.8562 96.3068 44.9499 95 42L93 42M118 51C117.936 48.0066 118.054 46.6544 115 46L116 50C113.189 46.9781 114.227 45.1568 118 44L118 42C109.828 42.6234 109.828 50.3766 118 51M125 42L125 51C126.783 50.0197 126.594 50.0924 127 48C128.768 49.3485 129.982 50.1219 132 51C130.288 46.0904 131.047 42.4715 125 42M139.314 43.0471C135 45.7669 139.273 52.9766 143.397 49.9529C146.958 47.3423 143.736 40.259 139.314 43.0471M152 42C152.007 44.0659 151.65 46.7682 152.603 48.6829C153.825 51.1358 157.175 51.1358 158.397 48.6829C159.35 46.7682 158.993 44.0659 159 42L157 42C156.888 45.5236 156.54 47.5157 154 50L154 42L152 42M169 48L165 49L165 51L167.088 50.9167C173.504 49.314 166.622 45.4564 170 43C164.994 41.357 165.527 45.854 169 48M177 42L177 51C182.221 48.0773 185.075 42.3898 177 42z"/>
<path style="fill:#f4f5fd; stroke:none;" d="M140 43C139.236 45.7455 139.236 47.2545 140 50C143.868 47.8403 143.868 45.1597 140 43M45 44L45 49L48 49L48 44L45 44M127 44L127 46L129 46L129 44L127 44M179 44L179 46L181 46L181 44L179 44M93 45L93 47L95 47L95 45L93 45z"/>
</svg>
